<?xml version="1.0" encoding="utf-8"?>
<!-- Generator: Adobe Illustrator 22.1.0, SVG Export Plug-In . SVG Version: 6.00 Build 0)  -->
<svg version="1.1" id="레이어_1" xmlns="http://www.w3.org/2000/svg" xmlns:xlink="http://www.w3.org/1999/xlink" x="0px"
	 y="0px" viewBox="0 0 352 110" style="enable-background:new 0 0 352 110;" xml:space="preserve">
<style type="text/css">
	.st0{fill:#8800B2;}
</style>
<g>
	<path class="st0" d="M133.4,19.5c5.3,0,9.7-4.4,9.7-9.8s-4.3-9.8-9.7-9.8c-5.3,0-9.7,4.4-9.7,9.8C123.8,15.2,128.1,19.5,133.4,19.5
		z"/>
	<path class="st0" d="M161.8,0v4.5h15.7v98.2h-68V36.6h16.7v-4.4h-16.7V3.3c-9.9,5.3-16.9,14.9-18.4,28.8h-10v4.4h9.5v66.1H71.8V0
		H36.2v4.5h16.7v41.6c0,0-7-16.8-20.8-16.8C14.1,29.3,0,47.5,0,69.5c0,0,0,0.1,0,0.2C0,91.8,14.1,110,32.1,110l0,0l0,0
		c0,0,13.2,0.7,20.8-16.8v14.1h73.3v-0.1h69.2v-2.1v-2.4V4.5V0h-27.8H161.8z M52.9,73.4c-1.1,18.5-10.5,31.7-21.8,31.7l0,0
		c-16,0-15-19.4-15-35.4c0-0.1,0-0.1,0-0.2c0-15.9-1.1-35.3,15-35.4l0,0c11.3,0,20.6,13.2,21.8,31.7V73.4z"/>
	<path class="st0" d="M319.9,29.2c-13,0-20,15.1-20.7,16.7V0h-0.1h-32.4v4.5h14.6v98.2h-13.6c-2.6-0.1-3.5-1.6-4.4-2.7
		c-0.8-1.1-0.8-3.1-0.8-5V52.3c0-4.2-0.7-7.6-2.1-10.3s-3.3-4.9-5.7-6.5c-2.4-1.6-5.2-2.7-8.5-3.3c-3.3-0.6-6.8-0.9-10.5-0.9
		c-3.2,0-6.3,0.3-9.3,1c-3,0.7-5.7,1.7-8,3c-2.4,1.3-4.2,3-5.7,5.1c-1.4,2-2.1,4.3-2.1,6.9c0,1.7,0.3,3,0.8,4s1.2,1.8,2,2.3
		s1.7,0.9,2.7,1s2,0.2,3,0.2c0.7,0,1.5,0,2.6-0.1c1,0,2-0.3,2.9-0.7s1.7-1,2.4-1.9c0.7-0.8,1-2,1-3.5c0-0.3,0-0.8-0.1-1.6
		s-0.5-1.7-0.6-2.5c-0.1-0.7-0.1-1.3-0.1-1.6c0-2.8,0.8-4.7,2.5-5.7s3.6-1.6,5.9-1.6c3.5,0,5.9,1.1,7.2,3.3s1.9,4.6,1.9,7.3V53
		c0,1.9,0,5.8-0.5,7s-1.8,2.7-3.2,3.7c-1.4,0.9-3.3,1.8-5.8,2.7c-2.5,0.8-5.8,1.9-9.8,3c-2.4,0.8-4.9,1.4-7.1,2.5
		c-2.8,1.3-5.2,2.2-7.9,4.5c-2,1.7-3.4,4.5-4.1,8.8c-0.3,2.2-0.3,3.4-0.3,6.3c0,2.8,0.5,5.3,1.9,8.3c1,2.1,2.9,3.9,5,4.9
		c2.1,1.1,4.3,1.9,6.8,2.4c2.4,0.5,4.8,0.7,7.2,0.7c5.2,0,9.2-0.7,11.9-2.1s4.9-3.6,6.5-7.6h0.3c0.6,3.2,1.2,4.7,3.2,6.6
		c2.5,2.4,5.9,2.7,12.3,2.6l10.5-0.3h27.7v-2.1v-2.4v-9.4c7.5,17.4,20.7,16.7,20.7,16.7l0,0l0,0c18,0,32.1-18.2,32.1-40.3
		c0-0.1,0-0.1,0-0.2C352,47.4,337.9,29.3,319.9,29.2z M244.5,87.4c0,2.9-0.3,4.1-0.9,6.1c-0.6,2-1.4,3.7-2.4,4.9
		c-1,1.2-2.1,2.2-3.3,2.7c-1.2,0.6-2.5,0.9-3.7,0.9c-2.3,0-4-0.1-5.3-1.1s-2.2-2.3-2.9-3.8c-0.6-1.5-1-3-1.2-4.6
		c-0.1-1.6-0.2-4.2-0.2-5.4c0-3,0.5-6.2,1.4-8.1s2.1-3.5,3.6-4.8s3.1-2.4,5-3.2c1.9-0.8,3.7-1.7,5.6-2.6c1.4-0.7,2.3-1.3,2.9-1.8
		c0.6-0.4,1-0.7,1.3-1.2l0.1-0.2L244.5,87.4L244.5,87.4z M320.9,105L320.9,105c-11.1,0-20.4-12.8-21.7-31v-8.9
		c1.3-18.1,10.6-31,21.7-31l0,0c16,0,15,19.4,15,35.4c0,0.1,0,0.1,0,0.2C335.8,85.6,336.9,105,320.9,105z"/>
</g>
</svg>
